<svg xmlns="http://www.w3.org/2000/svg" viewBox="0 0 251.98 252.68"><defs><style>.cls-1{fill:#3382e8;}.cls-2{fill:#6eaee8;}</style></defs><title>icon_2</title><g id="Layer_2" data-name="Layer 2"><g id="Layer_1-2" data-name="Layer 1"><path class="cls-1" d="M99.64,91.7a14.53,14.53,0,0,0,4.27,10.88q4.27,4.17,12.61,6.61V75.42q-8.34,1.63-12.61,5.9A14.12,14.12,0,0,0,99.64,91.7Z"/><path class="cls-1" d="M140.94,139.5v31.94A26.63,26.63,0,0,0,150.5,165a12.51,12.51,0,0,0,3.66-8.65,15.58,15.58,0,0,0-3.25-9.87Q147.65,142.36,140.94,139.5Z"/><path class="cls-1" d="M126,.7a126,126,0,1,0,126,126A126,126,0,0,0,126,.7Zm42,180.71q-10.58,10.78-27.06,14.44v12.61a12.16,12.16,0,0,1-12.41,12.41,11.44,11.44,0,0,1-8.54-3.56,12.19,12.19,0,0,1-3.46-8.85V197.07a70.56,70.56,0,0,1-20-4.68,64,64,0,0,1-17.6-11q-5.49-4.88-5.49-10.78a11.47,11.47,0,0,1,3.46-8.24,11.21,11.21,0,0,1,8.34-3.56,10.78,10.78,0,0,1,6.92,2.44,72.28,72.28,0,0,0,12,8,39.65,39.65,0,0,0,12.41,4V133.6q-40.89-7.52-40.89-40.89,0-16.88,11.39-27.77t29.5-13.32V44.91A12.16,12.16,0,0,1,128.94,32.5a11.45,11.45,0,0,1,8.54,3.56,12.21,12.21,0,0,1,3.46,8.85v7.53Q158.23,55.49,169.42,65q5.9,4.68,5.9,10.78a11.47,11.47,0,0,1-3.46,8.24,11,11,0,0,1-8.14,3.56,8.93,8.93,0,0,1-5.49-1.83q-6.1-5.08-17.29-8.75v37.63q19.73,4.68,28.68,13.73t9,26.55A36.32,36.32,0,0,1,168,181.41Z"/><path class="cls-2" d="M120,217.32a12.19,12.19,0,0,1-3.46-8.85V197.07a70.56,70.56,0,0,1-20-4.68,64,64,0,0,1-17.6-11q-5.49-4.88-5.49-10.78a11.47,11.47,0,0,1,3.46-8.24,11.21,11.21,0,0,1,8.34-3.56,10.78,10.78,0,0,1,6.92,2.44,72.28,72.28,0,0,0,12,8,39.65,39.65,0,0,0,12.41,4V133.6q-40.89-7.52-40.89-40.89,0-16.88,11.39-27.77t29.5-13.32V44.91a12,12,0,0,1,3.56-8.85,11.73,11.73,0,0,1,5.9-3.24V0a126,126,0,1,0,0,252V220.63A11.3,11.3,0,0,1,120,217.32Z"/><path class="cls-2" d="M103.92,102.58q4.27,4.17,12.61,6.61V75.42q-8.34,1.63-12.61,5.9A14.12,14.12,0,0,0,99.64,91.7,14.53,14.53,0,0,0,103.92,102.58Z"/></g></g></svg>