<svg xmlns="http://www.w3.org/2000/svg" viewBox="0 0 246 246"><defs><style>.cls-1{fill:#6eaee8;}.cls-2{fill:#3382e8;}</style></defs><title>icon_4</title><g id="Layer_2" data-name="Layer 2"><g id="Layer_1-2" data-name="Layer 1"><path class="cls-1" d="M92.69,138.14a33.94,33.94,0,0,0,15.16,15.16,33.39,33.39,0,0,0,4.42,1.84,34,34,0,0,0,21.45,0,33.39,33.39,0,0,0,4.42-1.84,33.94,33.94,0,0,0,15.16-15.16,33.39,33.39,0,0,0,1.84-4.42,34,34,0,0,0,0-21.45,33.39,33.39,0,0,0-1.84-4.42,33.94,33.94,0,0,0-15.16-15.16,33.39,33.39,0,0,0-4.42-1.84,34,34,0,0,0-21.45,0,33.39,33.39,0,0,0-4.42,1.84,33.94,33.94,0,0,0-15.16,15.16,33.39,33.39,0,0,0-1.84,4.42,34,34,0,0,0,0,21.45A33.39,33.39,0,0,0,92.69,138.14Z"/><path class="cls-1" d="M123,246A123,123,0,1,0,0,123,123,123,0,0,0,123,246ZM40.5,111a3.2,3.2,0,0,1,3.19-3.19H59a65.27,65.27,0,0,1,8-19.4L56.21,77.63a3.19,3.19,0,0,1,0-4.51L73.12,56.21a3.19,3.19,0,0,1,4.51,0L88.45,67a65.27,65.27,0,0,1,19.4-8V43.69A3.2,3.2,0,0,1,111,40.5H135a3.2,3.2,0,0,1,3.19,3.19V59a65.27,65.27,0,0,1,19.4,8l10.82-10.82a3.19,3.19,0,0,1,4.51,0l16.91,16.91a3.19,3.19,0,0,1,0,4.51L179,88.45a65.27,65.27,0,0,1,8,19.4h15.3A3.2,3.2,0,0,1,205.5,111V135a3.2,3.2,0,0,1-3.19,3.19H187a65.27,65.27,0,0,1-8,19.4l10.82,10.82a3.19,3.19,0,0,1,0,4.51l-16.91,16.91a3.19,3.19,0,0,1-4.51,0L157.55,179a65.27,65.27,0,0,1-19.4,8v15.3A3.2,3.2,0,0,1,135,205.5H111a3.2,3.2,0,0,1-3.19-3.19V187a65.27,65.27,0,0,1-19.4-8L77.63,189.79a3.19,3.19,0,0,1-4.51,0L56.21,172.88a3.19,3.19,0,0,1,0-4.51L67,157.55a65.27,65.27,0,0,1-8-19.4H43.69A3.2,3.2,0,0,1,40.5,135Z"/><path class="cls-2" d="M112.28,90.86a33.39,33.39,0,0,0-4.42,1.84,33.94,33.94,0,0,0-15.16,15.16,33.39,33.39,0,0,0-1.84,4.42,34,34,0,0,0,0,21.45,33.39,33.39,0,0,0,1.84,4.42,33.94,33.94,0,0,0,15.16,15.16,33.39,33.39,0,0,0,4.42,1.84A33.84,33.84,0,0,0,123,156.88h.25V89.13H123A33.84,33.84,0,0,0,112.28,90.86Z"/><path class="cls-2" d="M123,246h.25V205.5H111a3.2,3.2,0,0,1-3.19-3.19V187a65.27,65.27,0,0,1-19.4-8L77.63,189.79a3.19,3.19,0,0,1-4.51,0L56.21,172.88a3.19,3.19,0,0,1,0-4.51L67,157.55a65.27,65.27,0,0,1-8-19.4H43.69A3.2,3.2,0,0,1,40.5,135V111a3.2,3.2,0,0,1,3.19-3.19H59a65.27,65.27,0,0,1,8-19.4L56.21,77.63a3.19,3.19,0,0,1,0-4.51L73.12,56.21a3.19,3.19,0,0,1,4.51,0L88.45,67a65.27,65.27,0,0,1,19.4-8V43.69A3.2,3.2,0,0,1,111,40.5h12.21V0H123a123,123,0,0,0,0,246Z"/></g></g></svg>