<svg xmlns="http://www.w3.org/2000/svg" viewBox="0 0 207.86 224"><defs><style>.cls-1{fill:#6eaee8;}.cls-2{fill:#fff;}.cls-3{fill:#3382e8;}</style></defs><title>icon_3</title><g id="Layer_2" data-name="Layer 2"><g id="Layer_1-2" data-name="Layer 1"><rect class="cls-1" width="128.35" height="205.84"/><rect class="cls-2" x="6.46" y="6.46" width="24.22" height="24.22"/><rect class="cls-2" x="6.46" y="34.63" width="24.22" height="24.22"/><rect class="cls-2" x="6.46" y="62.8" width="24.22" height="24.22"/><rect class="cls-2" x="6.46" y="90.97" width="24.22" height="24.22"/><rect class="cls-2" x="6.46" y="119.14" width="24.22" height="24.22"/><rect class="cls-2" x="6.46" y="147.32" width="24.22" height="24.22"/><path class="cls-3" d="M176.24,81.12h-82a7.47,7.47,0,0,0-7.47,7.47V216.94A7.06,7.06,0,0,0,93.84,224H197.56a10.29,10.29,0,0,0,10.29-10.29v-101Z"/><path class="cls-1" d="M176.37,81.12V113a4.41,4.41,0,0,0,5.18,4.34l26.3-4.72Z"/></g></g></svg>