<svg xmlns="http://www.w3.org/2000/svg" viewBox="0 0 213.23 224"><defs><style>.cls-1{fill:#3382e8;}.cls-2{fill:#6eaee8;}</style></defs><title>icon_5</title><g id="Layer_2" data-name="Layer 2"><g id="Layer_1-2" data-name="Layer 1"><path class="cls-1" d="M118.34,0H9.88A9.88,9.88,0,0,0,0,9.88V179.66A9.34,9.34,0,0,0,9.34,189H146.56a13.61,13.61,0,0,0,13.61-13.61V41.82Z"/><path class="cls-2" d="M118.53,0V42.15a5.83,5.83,0,0,0,6.86,5.74l34.79-6.24Z"/><path class="cls-2" d="M178.7,68H89.15A8.15,8.15,0,0,0,81,76.13V216.29A7.71,7.71,0,0,0,88.71,224H202a11.24,11.24,0,0,0,11.24-11.24V102.5Z"/><path class="cls-1" d="M178.85,68v34.8a4.81,4.81,0,0,0,5.66,4.74l28.72-5.15Z"/></g></g></svg>